{"title":"Against All Flag(1952)MP-4[DaScubaDude]","uid":12605687,"size":847038802,"categoryP":"video","categoryS":"movies","magnet":"?xt=urn:btih:d319c9212c53d3daa36e164d129682b81a231849&amp;dn=Against+All+Flag%281952%29MP-4%5BDaScubaDude%5D&amp;tr=udp%3A%2F%2Ftracker.leechers-paradise.org%3A6969&amp;tr=udp%3A%2F%2Fzer0day.ch%3A1337&amp;tr=udp%3A%2F%2Fopen.demonii.com%3A1337&amp;tr=udp%3A%2F%2Ftracker.coppersurfer.tk%3A6969&amp;tr=udp%3A%2F%2Fexodus.desync.com%3A6969","seeders":0,"leechers":1,"uploader":"dascuba","files":1,"time":1445381795,"description":"Against All Flags (1952)\r\n83 min  |  Action, Adventure, Drama  |  21 November 1952 (Netherlands)\r\n6.8 Your rating:   -/10   Ratings: 6.8/10 from 1,517 users   \r\nReviews: 23 user | 7 critic\r\nBrian Hawke of the Royal Navy versus the pirates of Madagascar.\r\n\r\nDirector: George Sherman\r\nWriters: Æneas MacKenzie (screenplay) (as Aeneas MacKenzie) , Joseph Hoffman (screenplay), 1 more credit »\r\nStars: Errol Flynn, Maureen O'Hara, Anthony Quinn |\r\n\r\nGeneral\r\nComplete name                            : C:Against All FlagsPIRATES_FRANCHISE_COLLECTION_Title1.mp4\r\nFormat                                   : MPEG-4\r\nFormat profile                           : Base Media\r\nCodec ID                                 : isom\r\nFile size                                : 808 MiB\r\nDuration                                 : 1h 23mn\r\nOverall bit rate                         : 1 352 Kbps\r\nMovie name                               : PIRATES_FRANCHISE_COLLECTION\r\nGenre                                    : Classic\r\nWriting application                      : Lavf54.6.100\r\n\r\nVideo\r\nID                                       : 1\r\nFormat                                   : AVC\r\nFormat/Info                              : Advanced Video Codec\r\nFormat profile                           :   \r\nFormat settings, CABAC                   : No\r\nFormat settings, ReFrames                : 6 frames\r\nCodec ID                                 : avc1\r\nCodec ID/Info                            : Advanced Video Coding\r\nDuration                                 : 1h 23mn\r\nBit rate                                 : 1 206 Kbps\r\nWidth                                    : 720 pixels\r\nHeight                                   : 540 pixels\r\nDisplay aspect ratio                     : 4:3\r\nFrame rate mode                          : Constant\r\nFrame rate                               : 29.970 fps\r\nColor space                              : YUV\r\nChroma subsampling                       : 4:2:0\r\nBit depth                                : 8 bits\r\nScan type                                : Progressive\r\nBits/(Pixel*Frame)                       : 0.104\r\nStream size                              : 720 MiB (89%)\r\n\r\nAudio\r\nID                                       : 2\r\nFormat                                   : AAC\r\nFormat/Info                              : Advanced Audio Codec\r\nFormat profile                           : LC\r\nCodec ID                                 : 40\r\nDuration                                 : 1h 23mn\r\nBit rate mode                            : Constant\r\nBit rate                                 : 140 Kbps\r\nChannel(s)                               : 2 channels\r\nChannel positions                        : Front: L R\r\nSampling rate                            : 44.1 KHz\r\nCompression mode                         : Lossy\r\nStream size                              : 83.5 MiB (10%)","torrent":{"xt":"urn:btih:d319c9212c53d3daa36e164d129682b81a231849","amp;dn":"Against+All+Flag%281952%29MP-4%5BDaScubaDude%5D","amp;tr":["udp%3A%2F%2Ftracker.leechers-paradise.org%3A6969","udp%3A%2F%2Fzer0day.ch%3A1337","udp%3A%2F%2Fopen.demonii.com%3A1337","udp%3A%2F%2Ftracker.coppersurfer.tk%3A6969","udp%3A%2F%2Fexodus.desync.com%3A6969"],"infoHash":"d319c9212c53d3daa36e164d129682b81a231849","infoHashBuffer":{"type":"Buffer","data":[211,25,201,33,44,83,211,218,163,110,22,77,18,150,130,184,26,35,24,73]},"announce":[],"urlList":[]}}